<svg width="614" height="125" viewBox="0 0 614 125" fill="none" xmlns="http://www.w3.org/2000/svg">
<path d="M0.090909 123V29.9091H36.8182C43.8788 29.9091 49.8939 31.2576 54.8636 33.9545C59.8333 36.6212 63.6212 40.3333 66.2273 45.0909C68.8636 49.8182 70.1818 55.2727 70.1818 61.4545C70.1818 67.6364 68.8485 73.0909 66.1818 77.8182C63.5152 82.5455 59.6515 86.2273 54.5909 88.8636C49.5606 91.5 43.4697 92.8182 36.3182 92.8182H12.9091V77.0455H33.1364C36.9242 77.0455 40.0455 76.3939 42.5 75.0909C44.9849 73.7576 46.8333 71.9242 48.0455 69.5909C49.2879 67.2273 49.9091 64.5151 49.9091 61.4545C49.9091 58.3636 49.2879 55.6667 48.0455 53.3636C46.8333 51.0303 44.9849 49.2273 42.5 47.9545C40.0152 46.6515 36.8636 46 33.0455 46H19.7727V123H0.090909ZM168.511 76.4545C168.511 86.6061 166.587 95.2424 162.739 102.364C158.92 109.485 153.708 114.924 147.102 118.682C140.527 122.409 133.133 124.273 124.92 124.273C116.648 124.273 109.223 122.394 102.648 118.636C96.072 114.879 90.875 109.439 87.0568 102.318C83.2386 95.197 81.3295 86.5758 81.3295 76.4545C81.3295 66.303 83.2386 57.6667 87.0568 50.5455C90.875 43.4242 96.072 38 102.648 34.2727C109.223 30.5151 116.648 28.6364 124.92 28.6364C133.133 28.6364 140.527 30.5151 147.102 34.2727C153.708 38 158.92 43.4242 162.739 50.5455C166.587 57.6667 168.511 66.303 168.511 76.4545ZM148.557 76.4545C148.557 69.8788 147.572 64.3333 145.602 59.8182C143.663 55.303 140.92 51.8788 137.375 49.5455C133.83 47.2121 129.678 46.0455 124.92 46.0455C120.163 46.0455 116.011 47.2121 112.466 49.5455C108.92 51.8788 106.163 55.303 104.193 59.8182C102.254 64.3333 101.284 69.8788 101.284 76.4545C101.284 83.0303 102.254 88.5758 104.193 93.0909C106.163 97.6061 108.92 101.03 112.466 103.364C116.011 105.697 120.163 106.864 124.92 106.864C129.678 106.864 133.83 105.697 137.375 103.364C140.92 101.03 143.663 97.6061 145.602 93.0909C147.572 88.5758 148.557 83.0303 148.557 76.4545ZM117.966 20.9091L127.602 0.227272H145.511L131.648 20.9091H117.966ZM233.591 56.6818C233.227 53.0151 231.667 50.1667 228.909 48.1364C226.152 46.1061 222.409 45.0909 217.682 45.0909C214.47 45.0909 211.758 45.5455 209.545 46.4545C207.333 47.3333 205.636 48.5606 204.455 50.1364C203.303 51.7121 202.727 53.5 202.727 55.5C202.667 57.1667 203.015 58.6212 203.773 59.8636C204.561 61.1061 205.636 62.1818 207 63.0909C208.364 63.9697 209.939 64.7424 211.727 65.4091C213.515 66.0455 215.424 66.5909 217.455 67.0455L225.818 69.0455C229.879 69.9545 233.606 71.1667 237 72.6818C240.394 74.197 243.333 76.0606 245.818 78.2727C248.303 80.4848 250.227 83.0909 251.591 86.0909C252.985 89.0909 253.697 92.5303 253.727 96.4091C253.697 102.106 252.242 107.045 249.364 111.227C246.515 115.379 242.394 118.606 237 120.909C231.636 123.182 225.167 124.318 217.591 124.318C210.076 124.318 203.53 123.167 197.955 120.864C192.409 118.561 188.076 115.152 184.955 110.636C181.864 106.091 180.242 100.47 180.091 93.7727H199.136C199.348 96.8939 200.242 99.5 201.818 101.591C203.424 103.652 205.561 105.212 208.227 106.273C210.924 107.303 213.97 107.818 217.364 107.818C220.697 107.818 223.591 107.333 226.045 106.364C228.53 105.394 230.455 104.045 231.818 102.318C233.182 100.591 233.864 98.6061 233.864 96.3636C233.864 94.2727 233.242 92.5152 232 91.0909C230.788 89.6667 229 88.4545 226.636 87.4545C224.303 86.4545 221.439 85.5455 218.045 84.7273L207.909 82.1818C200.061 80.2727 193.864 77.2879 189.318 73.2273C184.773 69.1667 182.515 63.697 182.545 56.8182C182.515 51.1818 184.015 46.2576 187.045 42.0455C190.106 37.8333 194.303 34.5455 199.636 32.1818C204.97 29.8182 211.03 28.6364 217.818 28.6364C224.727 28.6364 230.758 29.8182 235.909 32.1818C241.091 34.5455 245.121 37.8333 248 42.0455C250.879 46.2576 252.364 51.1364 252.455 56.6818H233.591ZM265.057 39.9091V29.9091H334.875V39.9091H305.602V123H294.33V39.9091H265.057ZM352.273 123V29.9091H408.455V39.9091H363.545V71.3636H405.545V81.3636H363.545V113H409.182V123H352.273ZM428.773 123V29.9091H460.227C467.5 29.9091 473.47 31.1515 478.136 33.6364C482.803 36.0909 486.258 39.4697 488.5 43.7727C490.742 48.0758 491.864 52.9697 491.864 58.4545C491.864 63.9394 490.742 68.803 488.5 73.0455C486.258 77.2879 482.818 80.6212 478.182 83.0455C473.545 85.4394 467.621 86.6364 460.409 86.6364H434.955V76.4545H460.045C465.015 76.4545 469.015 75.7273 472.045 74.2727C475.106 72.8182 477.318 70.7576 478.682 68.0909C480.076 65.3939 480.773 62.1818 480.773 58.4545C480.773 54.7273 480.076 51.4697 478.682 48.6818C477.288 45.8939 475.061 43.7424 472 42.2273C468.939 40.6818 464.894 39.9091 459.864 39.9091H440.045V123H428.773ZM472.591 81.1818L495.5 123H482.409L459.864 81.1818H472.591ZM579.92 123L595.193 29.9091H604.284L589.011 123H579.92ZM537.557 97.1818L539.011 88.0909H608.466L607.011 97.1818H537.557ZM547.193 123L562.466 29.9091H571.557L556.284 123H547.193ZM543.011 64.8182L544.466 55.7273H613.92L612.466 64.8182H543.011Z" fill="black"/>
</svg>
